<svg width="25" height="24" viewBox="0 0 25 24" fill="none" xmlns="http://www.w3.org/2000/svg">
<path d="M11.75 4H4.75C4.21957 4 3.71086 4.21071 3.33579 4.58579C2.96071 4.96086 2.75 5.46957 2.75 6V20C2.75 20.5304 2.96071 21.0391 3.33579 21.4142C3.71086 21.7893 4.21957 22 4.75 22H18.75C19.2804 22 19.7891 21.7893 20.1642 21.4142C20.5393 21.0391 20.75 20.5304 20.75 20V13" stroke="#393E46" stroke-width="2" stroke-linecap="round" stroke-linejoin="round"/>
<path d="M19.25 2.49998C19.6478 2.10216 20.1874 1.87866 20.75 1.87866C21.3126 1.87866 21.8522 2.10216 22.25 2.49998C22.6478 2.89781 22.8713 3.43737 22.8713 3.99998C22.8713 4.56259 22.6478 5.10216 22.25 5.49998L12.75 15L8.75 16L9.75 12L19.25 2.49998Z" stroke="#393E46" stroke-width="2" stroke-linecap="round" stroke-linejoin="round"/>
</svg>
