<svg width="44" height="50" viewBox="0 0 44 50" fill="none" xmlns="http://www.w3.org/2000/svg">
<g id="fa6-brands:microblog" clip-path="url(#clip0_1_131)">
<path id="Vector" d="M39 35.374C41.8799 31.9863 43.5996 27.7236 43.5996 23.0898C43.5996 12.0596 33.8731 3.125 21.875 3.125C9.87695 3.125 0.150391 12.0596 0.150391 23.0898C0.150391 34.1201 9.87695 43.0537 21.875 43.0537C24.5165 43.0578 27.1397 42.6141 29.6328 41.7412C29.7744 41.6928 29.9277 41.691 30.0704 41.736C30.213 41.781 30.3376 41.8704 30.4258 41.9912C32.2402 44.4414 35.0752 46.165 38.2275 46.8662C38.3396 46.8893 38.4561 46.867 38.5517 46.8042C38.6473 46.7414 38.714 46.6432 38.7373 46.5312C38.7503 46.4698 38.7496 46.4063 38.7353 46.3452C38.7209 46.2841 38.6933 46.2269 38.6543 46.1777C37.4495 44.6145 36.8265 42.6807 36.8923 40.7082C36.958 38.7357 37.7084 36.8476 39.0147 35.3682L39 35.374ZM32.1797 20.7422L26.584 24.9893L28.6133 31.7139C28.6517 31.8402 28.6497 31.9753 28.6077 32.1004C28.5658 32.2256 28.4858 32.3345 28.379 32.4121C28.2722 32.4896 28.1439 32.532 28.0119 32.5332C27.8799 32.5345 27.7508 32.4945 27.6426 32.4189L21.875 28.4102L16.1074 32.4219C15.9991 32.4972 15.87 32.5369 15.7381 32.5356C15.6062 32.5342 15.478 32.4919 15.3712 32.4144C15.2644 32.3369 15.1844 32.2282 15.1422 32.1032C15.1 31.9782 15.0978 31.8431 15.1357 31.7168L17.166 24.9922L11.5703 20.7451C11.4652 20.6655 11.3874 20.555 11.3479 20.4291C11.3085 20.3033 11.3092 20.1682 11.35 20.0428C11.3908 19.9173 11.4697 19.8077 11.5757 19.7291C11.6817 19.6506 11.8095 19.607 11.9414 19.6045L18.9609 19.457L21.2715 12.8242C21.3148 12.6997 21.3957 12.5917 21.5032 12.5153C21.6107 12.4388 21.7392 12.3978 21.8711 12.3978C22.003 12.3978 22.1315 12.4388 22.239 12.5153C22.3464 12.5917 22.4274 12.6997 22.4707 12.8242L24.7813 19.457L31.8008 19.6045C31.9333 19.6054 32.0623 19.6479 32.1695 19.7258C32.2767 19.8038 32.3569 19.9133 32.3987 20.0391C32.4404 20.1649 32.4418 20.3007 32.4025 20.4273C32.3633 20.5539 32.2853 20.665 32.1797 20.7451V20.7422Z" fill="#0092CA"/>
</g>
<defs>
<clipPath id="clip0_1_131">
<rect width="43.75" height="50" fill="white"/>
</clipPath>
</defs>
</svg>
