<svg width="25" height="24" viewBox="0 0 25 24" fill="none" xmlns="http://www.w3.org/2000/svg">
<path d="M3.75 6H5.75H21.75" stroke="#393E46" stroke-width="2" stroke-linecap="round" stroke-linejoin="round"/>
<path d="M19.75 6V20C19.75 20.5304 19.5393 21.0391 19.1642 21.4142C18.7891 21.7893 18.2804 22 17.75 22H7.75C7.21957 22 6.71086 21.7893 6.33579 21.4142C5.96071 21.0391 5.75 20.5304 5.75 20V6M8.75 6V4C8.75 3.46957 8.96071 2.96086 9.33579 2.58579C9.71086 2.21071 10.2196 2 10.75 2H14.75C15.2804 2 15.7891 2.21071 16.1642 2.58579C16.5393 2.96086 16.75 3.46957 16.75 4V6" stroke="#393E46" stroke-width="2" stroke-linecap="round" stroke-linejoin="round"/>
<path d="M10.75 11V17" stroke="#393E46" stroke-width="2" stroke-linecap="round" stroke-linejoin="round"/>
<path d="M14.75 11V17" stroke="#393E46" stroke-width="2" stroke-linecap="round" stroke-linejoin="round"/>
</svg>
